<svg xmlns="http://www.w3.org/2000/svg" width="82" height="64" fill="none"><path fill="#fff" d="M82 39.252h-9.792c-.101-.737-.249-1.481-.249-1.481l.287-3.855c.492-7.73-4.696-11.937-6.34-13.069-1.68-3.147-3.977-5.489-5.728-6.972l.772-.408 1.903-.994-1.278-1.734c-4.424-5.992-10.879-7.171-14.282-7.347.12-.405.198-.641.2-.646l.694-2.092-2.174-.311A32.64 32.64 0 0 0 41.426 0c-5.623 0-9.16 1.738-11.138 3.195-.1.073-.196.146-.29.22l-.128-1.029-2.2.89c-2.976 1.199-4.733 3.098-5.77 4.862L20.313 9.7c-1.266 1.245-2.128 2.783-2.569 4.583-1.86.904-4.164 2.566-5.94 5.594-.167.267-.483.812-.823 1.6-.934 2.111-2.26 6.47-.655 11.952a18.042 18.042 0 0 0 2.136 4.656l.816 1.167H3.582L0 53.734M0 53.734h17.957l.11 1.685 2.271-.753c.353-.118 1.2-.398 2.291-.758-.3.267-.475.42-.482.424l-2.392 2.085 2.991 1.043a27.371 27.371 0 0 0 9.054 1.521c1.34 0 2.57-.093 3.66-.234a112.581 112.581 0 0 1-1.636 2.088l-2.121 2.623 3.344.365c1.072.118 2.147.177 3.195.177 4.696 0 9.034-1.155 12.891-3.433a22.99 22.99 0 0 0 3.554-2.571c.24 1.048.397 1.698.442 1.885l.595 2.464 2.149-1.334c3.106-1.933 5.514-4.378 7.174-7.277h13.371L82 39.252"/><path fill="#091F40" d="M70.683 40.952c-.283-4.13-1.699-6.933-2.39-8.074 1.989 1.016 2.247 1.13 2.247 1.13l.017-.2c.491-7.718-5.5-11.509-5.945-11.78-2.432-4.815-6.538-7.72-7.574-8.399a227.903 227.903 0 0 1 3.13-1.67l.146-.075-.097-.131c-4.458-6.036-11.23-6.687-13.936-6.687-.55 0-.962.025-1.199.045.402-1.687.8-2.89.804-2.903l.052-.158-.164-.023a30.806 30.806 0 0 0-4.348-.327c-5.165 0-8.363 1.559-10.137 2.866-1.373 1.012-2.131 2.035-2.46 2.553a55.785 55.785 0 0 1-.341-2.153l-.022-.179-.167.067c-4.962 2-5.957 6.219-6.146 7.475a61.05 61.05 0 0 1-.427-1.354l-.066-.22-.163.16c-1.215 1.195-1.978 2.731-2.268 4.568-1.733.693-4.164 2.17-5.98 5.28-.11.173-.399.657-.722 1.405-.84 1.898-2.03 5.822-.578 10.78a16.183 16.183 0 0 0 1.933 4.211l2.012 2.87 2.274-6.516h7.769c.278.409.24 1.2-1.373 2.686l-1.943 1.774a15.047 15.047 0 0 0-2.567 2.98H4.906l-2.741 11.08h17.413c0 .299.006.599.025.901l.01.18.194-.064 3.085-1.018h4.304a148.433 148.433 0 0 1-3.94 3.585l-.18.158.225.079c2.711.946 5.57 1.426 8.499 1.426 3.629 0 6.4-.736 7.58-1.113-1.292 2.086-4.211 5.702-4.24 5.739l-.162.198.253.028c1.012.11 2.026.167 3.012.167 4.39 0 8.438-1.076 12.033-3.197 3.123-1.844 4.807-3.834 5.362-4.565.657 2.941 1.089 4.742 1.136 4.943l.046.186.163-.1c3.652-2.275 5.796-5.022 7.054-7.533h13.058l2.741-11.08h-9.153Z"/><path fill="#717073" d="M27.03 31.772h7.959a1.03 1.03 0 0 0-.112-.107c-.335-.277-.94-.498-1.727-.673a19.638 19.638 0 0 0-2.024-.32c-2.073-.235-4.623-.309-6.866-.317l-.934.001c-.673.003-1.304.01-1.87.02-.611.03-1.58.043-1.898.105 0 0-.84.047-1.077 1.291h6.865l.053-.003c.455-.02 1.005-.015 1.631.003Z"/><path fill="#B0B7BC" d="M23.036 19.246s.131.528.559 1.146c.324.468.819.99 1.555 1.37 0 0-.031.079-.095.171-.12.175-.361.404-.753.263l-.073-.03a2.943 2.943 0 0 1-1.05-.7 2.584 2.584 0 0 1-.508-.744s-.651-1.2.364-1.476m-.039 9.493c1.837-.042 4.072-.055 6.284.026 1.748.065 3.482.188 4.998.403.46.064.9.138 1.314.221.376.075.732.158 1.06.248a4.89 4.89 0 0 0-.046-.456 4.807 4.807 0 0 0-1.07-2.396c-1.073-1.276-3.159-2.404-7.208-2.293 0 0 .344-1.69-.034-3.469a6.762 6.762 0 0 0-.212-.77 5.622 5.622 0 0 0-.205-.513 4.614 4.614 0 0 0-.987-1.414 4.428 4.428 0 0 0-1.3-.862c-.726-.318-1.628-.504-2.746-.496l-.062-.001s-.17 0-.467.032a8.14 8.14 0 0 0-.98.174 9.401 9.401 0 0 0-2.085.769c-1.405.713-2.98 1.949-4.224 4.095 0 0-3.868 5.844.393 13.612.093-.735.39-2.74 1.058-4.373.512-1.252 1.242-2.288 2.266-2.37 0 0 1.764-.11 4.253-.167Z"/><path fill="#1E355E" d="M27.21 16.312c.558.323 1.09.732 1.529 1.248 2.802-6.922 9.289-6.118 9.289-6.118-.243.79-.414 1.967-.53 3.055 4.63-3.435 9.28-.947 9.28-.947a8.95 8.95 0 0 0-.514.743 24.71 24.71 0 0 0-1.198 2.17 8.73 8.73 0 0 1 2.695 1.877c1.515 1.544 2.046 3.18 2.046 3.18a7.86 7.86 0 0 0-.484.085c-.325.069-.679.16-1.045.265-.426.124-.866.266-1.292.411-.288.099-.568.198-.834.296 1.7 1.787 2.185 3.85 2.32 4.795.047.329.053.523.053.523-.728-.109-1.748-.076-2.731.003-.26.031-.505.071-.737.12-.73.15-1.325.375-1.808.647a4.117 4.117 0 0 0-1.406 1.265 3.926 3.926 0 0 0-.606 1.468l-.004.025c1.3.741 2.476 1.652 3.515 2.612a25.524 25.524 0 0 1 2.271 2.392c1.889 2.25 2.934 4.193 2.934 4.193.078-.29.149-.578.215-.861l.105-.475c.558-2.662.592-5.002.413-6.891 0-.005-.002-.01-.003-.014a20.79 20.79 0 0 0-.297-2.043l-.003-.01a17.225 17.225 0 0 0-.499-1.939c7.2 1.332 11.175 5.704 11.175 5.704-1.733-5.883-6.31-9.537-10.092-11.638 1.423-.452 5.824-1.724 9.637-1.521 0 0-2.338-4.795-8.747-7.533 2.037-1.162 3.914-2.241 3.914-2.241-5.647-5.247-14.493-3.212-14.493-3.212.427-2.356.747-3.426.747-3.426-9.449-.643-13.817 7.387-13.817 7.387-.747-.803-1.279-3.07-1.279-3.07-2.582 1.484-2.98 4.464-3.002 6.002a7.913 7.913 0 0 0 0 .353c.75.12 2.076.42 3.283 1.12"/><path fill="#1E355E" d="M60.497 28.467c4.273 5.45 4.68 10.794 4.68 10.794.86.6 1.63 1.198 2.231 1.692h1.232c-1.014-9.063-8.143-12.486-8.143-12.486ZM64.397 28.444a25.204 25.204 0 0 1 3.46 1.799c-1.73-7.1-8.441-7.08-8.441-7.08 3.932 2.753 4.98 5.281 4.98 5.281M53.033 37.012c-.03.405-.068.8-.117 1.182-.123.999-.31 1.92-.53 2.759h2.31c-.384-1.235-.931-2.548-1.663-3.941ZM44.763 53.311c-.33.907-.748 1.856-1.271 2.825a21.756 21.756 0 0 1-2.15 3.233l.021-.006a42.901 42.901 0 0 0 .466-.129c1.839-.526 5.015-1.635 7.835-3.628 1.373-.97 2.656-2.152 3.665-3.574h-8.15c-.123.416-.257.841-.416 1.279M29.27 54.38s1.347.018 3.328-.204c1.598-.18 3.61-.516 5.657-1.143a22.64 22.64 0 0 0 2.668-1H31.97a49.212 49.212 0 0 1-2.7 2.347M46.52 40.087a22.093 22.093 0 0 0-2.729-3.255 21.194 21.194 0 0 0-2.474-2.085c-.016 1.439-.278 3.584-1.32 6.206h7.083c-.186-.297-.371-.588-.56-.866M53.125 31.725c1.282 1.456 3.61 4.62 4.582 9.228h4.862c-1.803-4.836-6.873-7.926-9.444-9.228M58.137 52.568c.108.592.209 1.232.306 1.92l.067.47a26.083 26.083 0 0 0 2.21-2.926h-2.683l.1.536M37.577 38.59c-.316.03-.626.066-.93.106-2.21.296-4.11.887-5.737 1.65-.41.191-.8.395-1.176.606H36.8c.115-.253.219-.497.303-.72.376-.988.475-1.642.475-1.642M25.53 38.573l-.058.033c-.229.13-1.113.657-2.03 1.483-.286.258-.574.55-.847.863h1.552a27.349 27.349 0 0 1 1.382-2.38"/><path fill="#fff" d="M41.747 19.79c.09-.283.166-.583.226-.904a8.108 8.108 0 0 0-.939-.092c-1.537-.067-3.184.248-4.705.7a2.328 2.328 0 0 1 .127 1.867 2.322 2.322 0 0 1-2.18 1.544 2.316 2.316 0 0 1-2.236-1.714 24.215 24.215 0 0 0-1.044.536c.053.123.189.4.44.727.09.12.195.243.318.37 1.095.258 2.412.688 3.66 1.405a8.037 8.037 0 0 0 1.16-.076c.194-.025.391-.054.597-.094 0 0 1.917-.334 3.366-2.043.055-.064.108-.129.162-.197a6.357 6.357 0 0 0 .985-1.834c.023-.063.043-.13.063-.195M7.637 45.62h-.118l-1.232 5H3.963l2.042-8.255h2.91c.483 0 .588.141.611.636l.188 3.574h.106l1.948-3.727c.2-.366.352-.483.716-.483h3.24L13.68 50.62h-2.37l1.232-5h-.118l-2.57 4.528c-.2.354-.352.472-.658.472H8.53c-.446 0-.54-.141-.575-.613l-.318-4.387Z"/><path fill="#717073" d="M16.118 42.055h-3.634c-.53 0-.763.236-.985.645l-1.527 2.916-.138-2.63c-.027-.575-.19-.931-.918-.931H5.764l-.059.235-2.042 8.256-.095.384h2.96l.058-.236.857-3.476.203 2.812c.041.556.203.9.883.9h.67c.474 0 .705-.24.924-.629L11.8 47.35l-.788 3.197-.094.384h3.006l.058-.235 2.042-8.255.096-.385Zm-.394.31-2.043 8.255h-2.37l1.232-5h-.117l-2.57 4.528c-.2.354-.353.472-.658.472h-.67c-.445 0-.54-.14-.575-.613l-.316-4.388h-.118L6.287 50.62H3.963l2.042-8.255h2.911c.482 0 .587.14.61.636l.188 3.574h.106l1.949-3.727c.199-.365.352-.482.716-.482h3.24-.001Z"/><path fill="#fff" d="M17.998 48.603c.071.072.177.107.61.107h.787c.364 0 .494-.024.588-.119.093-.093.304-.295.75-2.098.423-1.734.318-2.028.235-2.11-.07-.072-.176-.108-.61-.108h-.786c-.364 0-.493.024-.587.119-.094.094-.306.294-.75 2.099-.436 1.733-.319 2.028-.237 2.11m-.351 2.018c-1.045 0-1.467-.201-1.702-.437-.541-.543-.763-1.675-.224-3.95.493-2.065 1.116-2.819 1.48-3.185.551-.554 1.115-.684 1.972-.684h2.148c1.043 0 1.466.2 1.7.436.542.543.765 1.675.224 3.951-.493 2.063-1.115 2.819-1.479 3.185-.552.554-1.115.684-1.971.684h-2.148Z"/><path fill="#717073" d="M18.233 48.38c-.018-.118-.022-.532.298-1.812.28-1.133.505-1.789.669-1.953.02-.012.093-.03.37-.03h.788c.22 0 .324.01.373.019.016.124.013.54-.298 1.815-.28 1.13-.504 1.788-.667 1.95-.02.014-.094.031-.372.031h-.786c-.224 0-.328-.01-.375-.02Zm3.087-6.325h-2.148c-.876 0-1.548.13-2.19.775-.433.434-1.064 1.251-1.561 3.33-.507 2.14-.407 3.527.305 4.243.362.364.955.527 1.92.527h2.148c.876 0 1.548-.13 2.19-.775.432-.434 1.064-1.252 1.56-3.33.508-2.14.408-3.527-.305-4.243-.363-.364-.954-.527-1.92-.527Zm-2.712 6.655h.786c.365 0 .494-.025.587-.119.094-.093.306-.294.752-2.1.422-1.731.317-2.027.235-2.11-.071-.07-.176-.106-.61-.106h-.788c-.363 0-.493.024-.586.118-.094.095-.305.295-.752 2.099-.434 1.734-.317 2.03-.235 2.112.071.07.177.106.61.106m2.713-6.345c1.044 0 1.467.2 1.702.436.54.542.762 1.675.223 3.95-.493 2.065-1.116 2.82-1.479 3.185-.552.554-1.116.684-1.972.684h-2.148c-1.044 0-1.467-.2-1.702-.436-.54-.542-.764-1.675-.223-3.95.492-2.065 1.115-2.82 1.478-3.185.552-.554 1.116-.684 1.973-.684h2.148Z"/><path fill="#fff" d="M30.976 50.62h-1.479c-.657 0-.927-.177-1.127-.72l-1.49-4.163h-.059l-1.197 4.883H23.24l2.042-8.255h1.89c.634 0 .916.189 1.092.707l1.255 3.68h.06l1.056-4.387h2.383l-2.043 8.255Z"/><path fill="#717073" d="M33.413 42.055h-3.02l-.056.237-.833 3.455-.948-2.775c-.22-.652-.621-.917-1.383-.917h-2.13l-.06.234-2.041 8.257-.095.384h3.018l.058-.236.977-3.984 1.18 3.295c.248.675.631.925 1.417.925h1.72l.059-.235 2.042-8.255.095-.385Zm-.394.31-2.043 8.255h-1.479c-.657 0-.927-.176-1.126-.72l-1.491-4.163h-.059l-1.197 4.883h-2.383l2.042-8.255h1.89c.634 0 .916.188 1.092.707l1.256 3.68h.058l1.057-4.387h2.383Z"/><path fill="#fff" d="M35.797 45.62h-.118l-1.232 5h-2.324l2.043-8.255h2.91c.482 0 .587.141.61.636l.188 3.574h.106l1.948-3.727c.2-.366.353-.483.717-.483h3.238l-2.042 8.255h-2.37l1.232-5h-.117l-2.572 4.528c-.198.354-.351.472-.657.472h-.669c-.446 0-.54-.141-.575-.613l-.317-4.387Z"/><path fill="#717073" d="M44.28 42.055h-3.635c-.531 0-.764.236-.987.645l-1.525 2.917-.139-2.632c-.026-.574-.19-.93-.918-.93h-3.152l-.058.235-2.042 8.256-.096.384h2.96l.059-.236.856-3.476.203 2.812c.041.556.204.9.883.9h.67c.475 0 .705-.24.925-.629l1.676-2.952-.789 3.197-.093.384h3.005l.059-.235 2.041-8.255.096-.385Zm-.395.31-2.043 8.255H39.47l1.232-5h-.117l-2.57 4.528c-.2.354-.353.472-.658.472h-.67c-.446 0-.54-.14-.575-.613l-.316-4.388h-.118l-1.232 5.001h-2.324l2.042-8.255h2.91c.483 0 .588.14.611.636l.188 3.574h.106l1.949-3.727c.198-.365.352-.482.716-.482h3.24Z"/><path fill="#fff" d="M46.158 48.603c.071.072.176.107.61.107h.787c.364 0 .493-.024.587-.119.093-.093.305-.295.751-2.098.423-1.734.317-2.028.235-2.11-.07-.072-.176-.108-.61-.108h-.786c-.364 0-.494.024-.588.119-.094.094-.306.294-.75 2.099-.436 1.733-.318 2.028-.236 2.11Zm-.352 2.018c-1.045 0-1.468-.201-1.702-.437-.54-.543-.764-1.675-.224-3.95.494-2.065 1.116-2.819 1.48-3.185.55-.554 1.115-.684 1.971-.684h2.148c1.046 0 1.468.2 1.702.436.541.543.763 1.675.223 3.951-.492 2.063-1.114 2.819-1.478 3.185-.552.554-1.117.684-1.972.684h-2.148Z"/><path fill="#717073" d="M46.393 48.38c-.017-.118-.021-.532.299-1.812.28-1.133.505-1.789.668-1.953.02-.012.095-.03.37-.03h.787c.221 0 .326.01.374.019.016.124.014.54-.298 1.815-.279 1.13-.504 1.788-.666 1.95-.02.014-.094.031-.372.031h-.786c-.225 0-.328-.01-.375-.02m3.085-6.325h-2.147c-.876 0-1.547.13-2.19.775-.432.434-1.064 1.251-1.56 3.33-.508 2.14-.408 3.527.304 4.243.362.364.955.527 1.92.527h2.149c.876 0 1.547-.13 2.19-.774.431-.435 1.064-1.253 1.561-3.332.506-2.139.408-3.526-.306-4.242-.362-.364-.954-.527-1.921-.527m-2.71 6.655h.785c.365 0 .494-.024.588-.119.093-.093.305-.294.75-2.099.423-1.732.319-2.028.236-2.11-.071-.07-.176-.106-.61-.106h-.788c-.363 0-.492.023-.586.118-.094.094-.306.294-.75 2.098-.436 1.734-.319 2.03-.237 2.112.072.07.177.106.612.106m2.71-6.344c1.046 0 1.468.2 1.704.435.54.543.763 1.675.222 3.951-.492 2.064-1.115 2.819-1.479 3.184-.55.555-1.117.685-1.971.685h-2.15c-1.044 0-1.467-.2-1.701-.437-.54-.542-.763-1.675-.224-3.95.493-2.065 1.116-2.82 1.48-3.184.552-.555 1.115-.684 1.972-.684h2.147Z"/><path fill="#fff" d="M54.815 47.294c-.176.731-.188 1.004-.082 1.11.095.093.305.117.774.117h.564c.4 0 .622 0 .763-.141.117-.118.199-.307.387-1.073l1.22-4.943h2.525l-1.22 4.943c-.46 1.827-.776 2.275-1.152 2.653-.553.554-1.163.66-2.218.66h-1.784c-1.15 0-1.797-.154-2.16-.519-.435-.436-.517-1.285-.117-2.89l1.196-4.846h2.524l-1.22 4.93Z"/><path fill="#717073" d="M61.36 42.055H58.2l-.057.235-1.222 4.941c-.167.684-.243.867-.305.929-.05.051-.281.051-.545.051h-.564c-.27 0-.45-.009-.533-.028-.004-.084.016-.294.14-.816l1.221-4.927.094-.385H53.27l-.058.235-1.198 4.847c-.41 1.65-.35 2.633.199 3.184.431.433 1.12.609 2.376.609h1.786c1.095 0 1.808-.12 2.436-.75.402-.405.748-.867 1.23-2.798l1.222-4.942.095-.385Zm-.394.31-1.22 4.941c-.46 1.828-.776 2.276-1.15 2.654-.553.553-1.164.66-2.22.66h-1.785c-1.149 0-1.795-.153-2.16-.52-.434-.435-.516-1.284-.116-2.889l1.197-4.846h2.523l-1.22 4.929c-.176.731-.187 1.003-.082 1.109.094.094.305.118.775.118h.563c.4 0 .622 0 .763-.142.117-.118.199-.306.387-1.073l1.22-4.94h2.525Z"/><path fill="#fff" d="m66.41 44.287-1.56 6.334h-2.524l1.56-6.334h-2.368l.479-1.922h7.324l-.48 1.922h-2.43Z"/><path fill="#717073" d="M69.717 42.055h-7.96l-.06.234-.48 1.922-.097.386h2.372l-1.464 5.949-.097.384h3.16l.057-.236 1.504-6.097h2.43l.059-.235.48-1.922.096-.385Zm-.396.31-.48 1.923h-2.43l-1.561 6.333h-2.525l1.562-6.333h-2.371l.481-1.922h7.324Z"/><path fill="#fff" d="M75.996 50.62h-2.524l.786-3.196h-2.677l-.785 3.196h-2.524l2.042-8.255h2.524l-.774 3.114h2.676l.774-3.114h2.523l-2.04 8.255Z"/><path fill="#717073" d="M78.433 42.055h-3.16l-.057.235-.716 2.878h-2.042l.68-2.728.096-.385h-3.162l-.058.235-2.042 8.256-.095.384h3.16l.058-.236.728-2.96h2.041l-.692 2.813-.095.383h3.16l.058-.235 2.042-8.255.096-.385Zm-.396.31-2.042 8.255h-2.523l.786-3.196h-2.675l-.786 3.197h-2.525l2.042-8.256h2.523l-.773 3.113h2.676l.773-3.113h2.524Z"/></svg>